<?xml version="1.0" standalone="no"?>
<!DOCTYPE svg PUBLIC "-//W3C//DTD SVG 20010904//EN"
 "http://www.w3.org/TR/2001/REC-SVG-20010904/DTD/svg10.dtd">
<svg version="1.0" xmlns="http://www.w3.org/2000/svg"
 width="400.000000pt" height="256.000000pt" viewBox="0 0 400.000000 256.000000"
 preserveAspectRatio="xMidYMid meet">

<g transform="translate(0.000000,256.000000) scale(0.100000,-0.100000)"
fill="#000000" stroke="none">
<path d="M3533 2373 l148 -4 -6 -287 c-3 -158 -8 -315 -11 -349 l-6 -63 -268
0 c-235 0 -269 2 -264 15 5 11 -1 15 -24 15 -17 0 -32 -6 -36 -15 -5 -13 -34
-15 -208 -13 l-203 3 -3 337 -2 337 37 4 c35 3 34 4 -9 5 l-48 2 2 -77 c0 -43
3 -201 6 -350 l4 -273 159 0 c88 0 159 -1 159 -2 -61 -533 -61 -538 -24 -538
17 0 17 -10 -1 -88 -56 -239 -223 -445 -452 -561 -222 -112 -569 -128 -843
-39 -207 67 -388 213 -492 399 l-48 84 0 -42 c0 -23 4 -52 9 -65 15 -38 59
-198 72 -263 9 -43 21 -68 42 -87 31 -30 43 -36 31 -15 -5 8 -2 8 9 -2 9 -7
17 -21 17 -30 0 -14 2 -14 10 -1 8 12 11 11 16 -8 5 -17 9 -20 15 -11 6 10 11
7 18 -11 5 -14 10 -18 11 -10 0 10 3 11 8 4 9 -15 91 -65 111 -69 9 -2 18 -4
21 -5 3 -1 8 -2 13 -1 4 0 7 -3 7 -9 0 -5 7 -7 15 -4 8 4 15 1 15 -5 0 -6 7
-8 15 -5 8 4 15 1 15 -6 0 -10 3 -10 15 0 12 10 15 9 15 -6 0 -14 3 -15 12 -6
14 14 32 16 23 3 -3 -5 -1 -12 4 -15 5 -4 12 -2 16 4 7 12 26 14 24 3 -3 -20
2 -24 16 -13 13 11 18 10 30 -6 8 -11 14 -14 15 -6 0 17 40 15 40 -3 0 -8 5
-15 10 -15 6 0 10 5 10 10 0 17 42 11 56 -7 10 -15 15 -16 25 -5 15 14 105 16
114 2 8 -13 85 -13 85 0 0 14 84 12 99 -2 10 -11 15 -10 25 5 15 19 41 23 52
5 5 -8 11 -6 20 7 8 11 19 15 30 11 10 -4 21 -1 25 6 6 9 11 9 23 -1 13 -11
16 -11 16 3 0 19 11 21 28 4 9 -9 12 -8 12 6 0 15 3 16 15 6 12 -10 15 -9 15
5 0 14 3 15 15 5 12 -10 15 -10 15 0 0 7 7 10 15 6 8 -3 15 -1 15 4 0 6 3 9 8
9 4 -1 10 0 15 1 4 1 11 3 15 4 22 3 112 59 112 69 0 7 4 6 10 -3 8 -13 10
-13 10 2 0 9 5 20 12 24 7 5 9 2 4 -7 -4 -8 2 -3 14 11 12 14 19 19 15 12 -3
-6 -1 -12 4 -12 6 0 11 6 11 14 0 7 8 20 17 27 15 12 16 12 8 -1 -5 -9 1 -7
16 5 13 11 25 20 26 20 1 0 12 46 24 100 24 112 103 363 149 475 16 40 30 74
30 76 0 1 -10 5 -22 7 -13 2 -2 5 25 6 43 1 47 -1 47 -23 0 -35 45 -84 88 -96
76 -21 282 -8 282 18 0 4 -14 27 -30 52 -16 25 -30 48 -30 53 0 4 14 7 30 7
25 0 30 4 30 25 0 24 -2 24 -82 27 l-83 3 -3 78 c-3 92 6 111 46 96 14 -6 44
-7 65 -3 l39 6 -5 57 c-4 31 -9 98 -13 149 l-7 92 150 0 150 0 6 188 c4 103 7
265 7 360 l0 172 -152 -2 -153 -2 148 -3z"/>
<path d="M2873 2363 c81 -2 213 -2 295 0 81 1 14 3 -148 3 -162 0 -229 -2
-147 -3z"/>
<path d="M1854 2346 c-7 -18 -49 -22 -59 -6 -9 15 -25 12 -25 -5 0 -18 -31
-20 -48 -3 -9 9 -12 8 -12 -5 0 -20 -21 -22 -38 -5 -9 9 -12 8 -12 -5 0 -19
-15 -23 -26 -5 -5 8 -11 6 -20 -6 -8 -12 -14 -14 -19 -6 -5 9 -9 9 -14 1 -4
-6 -23 -13 -42 -15 -18 -3 -35 -6 -36 -7 -2 -1 -6 -2 -10 -3 -5 -1 -14 -5 -20
-9 -7 -5 -13 -6 -13 -2 0 3 -10 0 -22 -7 -13 -7 -26 -11 -30 -10 -5 1 -8 -3
-8 -10 0 -6 -3 -9 -6 -5 -4 3 -12 1 -20 -6 -33 -30 -42 -35 -48 -30 -3 4 -6 0
-6 -8 0 -11 -2 -11 -10 1 -8 13 -10 12 -10 -4 0 -11 -3 -16 -7 -13 -3 4 -12
-1 -19 -11 -11 -14 -14 -14 -14 -2 -1 8 -6 4 -11 -10 -7 -18 -12 -21 -18 -11
-6 10 -10 9 -15 -5 -3 -9 -9 -14 -13 -10 -3 3 -12 -3 -20 -14 -8 -11 -20 -20
-26 -20 -7 0 -23 -16 -36 -36 -14 -19 -37 -42 -53 -50 -30 -16 -39 -30 -12
-20 14 5 15 4 5 -8 -7 -9 -21 -18 -32 -21 -10 -4 -19 -13 -19 -21 0 -8 -4 -14
-10 -14 -5 0 -10 -7 -10 -15 0 -8 -5 -15 -11 -15 -5 0 -7 -4 -4 -10 3 -5 2
-10 -3 -10 -5 0 -8 -12 -6 -27 2 -16 1 -20 -2 -9 -18 60 -106 86 -156 46 -16
-12 -28 -27 -28 -34 0 -7 -11 -25 -25 -40 -14 -15 -25 -39 -25 -53 0 -15 -10
-33 -26 -45 -21 -17 -25 -28 -23 -62 1 -22 -3 -51 -9 -63 -46 -85 42 -171 114
-110 24 21 29 34 32 83 8 123 10 135 24 152 24 27 38 59 38 86 0 23 4 26 33
26 38 0 73 -22 63 -39 -4 -6 -11 -9 -16 -6 -5 3 -5 -8 0 -25 14 -49 4 -63 -41
-56 -21 3 -40 2 -44 -3 -8 -13 20 -19 94 -20 36 -1 74 -7 84 -14 19 -12 23 -7
63 74 78 154 218 280 395 355 314 132 696 125 974 -20 33 -17 64 -33 69 -35 4
-2 5 6 1 18 -11 35 5 98 31 126 14 15 23 32 20 39 -3 7 -5 6 -5 -2 -1 -11 -4
-11 -16 0 -34 31 -43 36 -49 31 -3 -4 -6 -1 -6 5 0 7 -3 11 -7 10 -5 -1 -18 3
-30 10 -13 7 -23 9 -23 5 0 -4 -5 -2 -11 4 -6 6 -18 9 -25 6 -8 -3 -14 0 -14
6 0 6 -7 8 -15 5 -8 -4 -15 -1 -15 6 0 9 -3 10 -14 1 -11 -9 -15 -8 -20 5 -5
12 -9 14 -20 5 -11 -9 -15 -8 -20 5 -5 13 -9 15 -18 6 -17 -17 -28 -15 -28 5
0 13 -3 14 -12 5 -14 -14 -52 -16 -43 -3 8 15 -15 25 -28 12 -15 -15 -36 -14
-54 5 -10 10 -21 12 -32 7 -21 -11 -201 -10 -223 1 -13 6 -20 3 -24 -8z"/>
<path d="M3013 2265 c-137 -42 -249 -170 -268 -306 -7 -46 -7 -46 25 -51 26
-4 33 -1 41 19 5 13 9 32 9 41 0 37 49 120 97 162 70 63 136 85 248 84 181 -1
308 -91 331 -233 6 -39 9 -41 40 -41 40 0 43 16 19 97 -32 107 -114 187 -233
223 -76 24 -242 26 -309 5z"/>
<path d="M3120 1826 c0 -7 10 -21 23 -29 18 -14 20 -18 7 -26 -12 -8 -12 -11
4 -17 24 -9 46 19 46 58 0 26 -3 28 -40 28 -27 0 -40 -4 -40 -14z"/>
<path d="M910 1800 c0 -5 4 -10 9 -10 6 0 13 5 16 10 3 6 -1 10 -9 10 -9 0
-16 -4 -16 -10z"/>
<path d="M3065 1800 c3 -5 8 -10 11 -10 2 0 4 5 4 10 0 6 -5 10 -11 10 -5 0
-7 -4 -4 -10z"/>
<path d="M890 1753 c1 -16 28 -43 44 -43 23 0 20 15 -9 34 -27 18 -35 20 -35
9z"/>
<path d="M3073 1743 c-13 -2 -23 -9 -23 -14 0 -14 24 -11 46 6 19 15 16 16
-23 8z"/>
<path d="M1240 1588 c0 -18 -3 -42 -6 -53 -5 -21 33 -82 44 -71 3 3 -3 15 -13
26 -14 16 -16 29 -11 69 4 30 2 52 -4 56 -6 4 -10 -7 -10 -27z"/>
<path d="M870 1352 l0 -232 -114 0 -114 0 -32 -51 c-23 -34 -30 -53 -23 -60
26 -26 253 -29 293 -4 7 4 9 17 5 34 -4 14 -6 58 -5 96 4 128 1 437 -5 443 -3
3 -5 -99 -5 -226z"/>
<path d="M1013 922 c0 -27 -4 -60 -8 -73 -6 -18 -4 -21 5 -13 14 14 27 134 13
134 -5 0 -10 -22 -10 -48z"/>
<path d="M1050 910 c-6 -65 -5 -78 6 -68 3 3 4 34 2 69 l-3 64 -5 -65z"/>
<path d="M975 898 c-6 -38 -7 -68 -3 -68 10 0 20 60 16 101 -2 27 -5 20 -13
-33z"/>
<path d="M589 581 c-71 -22 -115 -83 -126 -170 -6 -52 -6 -52 -37 -45 -17 3
-35 7 -40 8 -5 0 -13 -10 -17 -24 -4 -15 -7 -18 -8 -8 -1 9 -6 20 -12 24 -8 4
-9 -1 -4 -17 7 -23 7 -24 -9 -4 l-15 20 -1 -20 c-1 -18 -1 -19 -11 -2 -18 31
-130 15 -144 -21 -11 -29 28 -50 173 -92 105 -31 146 -39 156 -31 7 6 21 37
30 69 14 46 22 58 37 58 16 -1 30 23 69 113 53 121 58 141 38 141 -7 0 -22 2
-33 5 -11 2 -32 0 -46 -4z m-91 -294 c4 -20 -25 -34 -40 -19 -15 15 -1 44 19
40 10 -2 19 -11 21 -21z"/>
<path d="M3325 568 c-3 -7 17 -65 44 -128 40 -93 53 -115 69 -114 16 0 24 -12
38 -58 9 -32 23 -63 30 -69 10 -8 51 0 156 31 145 42 184 63 173 92 -14 36
-126 52 -144 21 -10 -17 -10 -16 -11 2 l-1 20 -15 -20 c-16 -20 -16 -20 -9 3
3 12 4 22 0 22 -3 0 -10 -10 -15 -22 -8 -22 -9 -22 -9 -2 -1 31 -9 34 -53 18
-51 -18 -51 -18 -43 5 8 27 -13 111 -38 148 -11 17 -33 38 -48 47 -32 19 -118
22 -124 4z m223 -281 c4 -20 -25 -34 -40 -19 -15 15 -1 44 19 40 10 -2 19 -11
21 -21z"/>
<path d="M308 472 c-9 -28 -13 -52 -8 -52 12 0 32 56 28 81 -2 18 -7 10 -20
-29z"/>
<path d="M3670 496 c0 -22 21 -76 30 -76 5 0 2 20 -7 45 -15 46 -23 56 -23 31z"/>
<path d="M841 475 c-1 -53 11 -135 20 -129 14 8 10 96 -6 129 l-13 30 -1 -30z"/>
<path d="M3141 459 c-13 -38 -14 -89 -2 -108 6 -9 11 11 16 58 8 80 3 98 -14
50z"/>
<path d="M915 330 c-4 -6 -3 -35 1 -66 5 -46 10 -57 31 -65 27 -10 272 -13
297 -3 21 8 20 47 -1 66 -10 8 -33 21 -51 28 -28 11 -35 10 -50 -2 -22 -20
-48 -13 -31 8 9 11 9 18 -1 29 -9 11 -34 15 -101 15 -49 0 -91 -5 -94 -10z
m73 -43 c4 -20 -25 -34 -40 -19 -15 15 -1 44 19 40 10 -2 19 -11 21 -21z"/>
<path d="M2891 326 c-10 -12 -11 -19 -2 -30 9 -11 8 -15 -5 -20 -10 -4 -22 0
-29 11 -11 15 -16 15 -46 3 -19 -7 -42 -20 -51 -28 -22 -19 -23 -58 -2 -66 25
-10 270 -7 297 3 21 8 26 19 32 66 3 31 5 59 2 61 -3 3 -45 8 -94 11 -74 5
-91 3 -102 -11z m163 -32 c7 -19 -1 -34 -19 -34 -18 0 -28 17 -21 35 7 20 32
19 40 -1z"/>
<path d="M1127 303 c-4 -3 -7 -11 -7 -17 0 -6 5 -5 12 2 6 6 9 14 7 17 -3 3
-9 2 -12 -2z"/>
<path d="M2860 301 c0 -5 5 -13 10 -16 6 -3 10 -2 10 4 0 5 -4 13 -10 16 -5 3
-10 2 -10 -4z"/>
</g>
</svg>
